<?xml version="1.0" encoding="utf-8"?>
<!-- Generator: Adobe Illustrator 16.0.0, SVG Export Plug-In . SVG Version: 6.00 Build 0)  -->
<!DOCTYPE svg PUBLIC "-//W3C//DTD SVG 1.1//EN" "http://www.w3.org/Graphics/SVG/1.1/DTD/svg11.dtd">
<svg version="1.1" id="Layer_1" xmlns="http://www.w3.org/2000/svg" xmlns:xlink="http://www.w3.org/1999/xlink" x="0px" y="0px"
	 width="283.46px" height="246.8px" viewBox="0 18.331 283.46 246.8" enable-background="new 0 18.331 283.46 246.8"
	 xml:space="preserve">
<g id="XMLID_496_">
	<path id="XMLID_497_" fill="#FFFFFF" d="M5.007,136.67l65.315,24.378l25.281,81.303c1.618,5.207,7.985,7.131,12.211,3.676
		l36.408-29.68c3.816-3.109,9.252-3.264,13.24-0.369l65.666,47.674c4.521,3.287,10.926,0.811,12.061-4.654l48.104-231.389
		c1.238-5.968-4.626-10.946-10.309-8.749L4.93,122.268C-1.685,124.819-1.627,134.184,5.007,136.67z M91.528,148.071l127.649-78.619
		c2.295-1.409,4.654,1.693,2.686,3.521l-105.349,97.926c-3.703,3.447-6.091,8.06-6.768,13.066l-3.588,26.594
		c-0.475,3.551-5.463,3.904-6.443,0.467l-13.802-48.494C84.332,157,86.636,151.091,91.528,148.071z"/>
</g>
</svg>
